<svg width="30" height="24" viewBox="0 0 30 24" fill="none" xmlns="http://www.w3.org/2000/svg">
<g clip-path="url(#clip0_192_6346)">
<path d="M29.3986 2.92246C28.2978 3.41012 27.1302 3.73023 25.9346 3.87212C27.1799 3.12571 28.1361 1.94374 28.5864 0.535432C27.4025 1.23796 26.1073 1.73294 24.7566 1.99897C23.6564 0.826877 22.089 0.0943604 20.3543 0.0943604C17.0234 0.0943604 14.3229 2.79476 14.3229 6.12536C14.3229 6.59813 14.3763 7.05838 14.4791 7.49991C9.46665 7.24831 5.02263 4.84728 2.0479 1.19836C1.52885 2.08912 1.23144 3.12525 1.23144 4.2304C1.23144 6.32288 2.29628 8.16881 3.9145 9.25042C2.95674 9.22042 2.02005 8.96174 1.18263 8.49597C1.18229 8.52123 1.18229 8.54649 1.18229 8.57187C1.18229 11.494 3.26122 13.9317 6.02018 14.4857C5.13205 14.7273 4.20046 14.7626 3.29658 14.5891C4.06401 16.9852 6.29142 18.7288 8.9305 18.7776C6.86638 20.3951 4.26577 21.3594 1.4402 21.3594C0.953312 21.3594 0.473312 21.3308 0.00146484 21.2751C2.67052 22.9863 5.8407 23.9848 9.24663 23.9848C20.3403 23.9848 26.4065 14.7946 26.4065 6.82481C26.4065 6.56322 26.4008 6.30313 26.3891 6.04452C27.5698 5.19095 28.5889 4.13373 29.3986 2.92246Z" fill="#55ACEE"/>
</g>
<defs>
<clipPath id="clip0_192_6346">
<rect width="29.4" height="24" fill="white"/>
</clipPath>
</defs>
</svg>
